<?xml version="1.0" encoding="UTF-8" standalone="no"?>
<!-- Created with Inkscape (http://www.inkscape.org/) -->

<svg
   width="12.7mm"
   height="12.7mm"
   viewBox="0 0 12.7 12.7"
   version="1.1"
   id="svg1"
   xml:space="preserve"
   inkscape:version="1.4.2 (ebf0e940, 2025-05-08)"
   sodipodi:docname="react.svg"
   inkscape:export-filename="Desktop/sound-logo_2.png"
   inkscape:export-xdpi="2000"
   inkscape:export-ydpi="2000"
   xmlns:inkscape="http://www.inkscape.org/namespaces/inkscape"
   xmlns:sodipodi="http://sodipodi.sourceforge.net/DTD/sodipodi-0.dtd"
   xmlns:xlink="http://www.w3.org/1999/xlink"
   xmlns="http://www.w3.org/2000/svg"
   xmlns:svg="http://www.w3.org/2000/svg"><sodipodi:namedview
     id="namedview1"
     pagecolor="#ffffff"
     bordercolor="#999999"
     borderopacity="1"
     inkscape:showpageshadow="2"
     inkscape:pageopacity="0"
     inkscape:pagecheckerboard="0"
     inkscape:deskcolor="#d1d1d1"
     inkscape:document-units="mm"
     inkscape:zoom="20.352574"
     inkscape:cx="20.292274"
     inkscape:cy="22.380462"
     inkscape:window-width="1792"
     inkscape:window-height="1120"
     inkscape:window-x="0"
     inkscape:window-y="0"
     inkscape:window-maximized="0"
     inkscape:current-layer="layer1"
     showgrid="false" /><defs
     id="defs1"><linearGradient
       id="linearGradient22"
       inkscape:collect="always"><stop
         style="stop-color:#198de3;stop-opacity:1;"
         offset="0.35346845"
         id="stop27" /><stop
         style="stop-color:#0e50d3;stop-opacity:1;"
         offset="0.59633029"
         id="stop28" /><stop
         style="stop-color:#061dc7;stop-opacity:1;"
         offset="1"
         id="stop22" /></linearGradient><linearGradient
       id="linearGradient20"
       inkscape:collect="always"><stop
         style="stop-color:#2df9ff;stop-opacity:1;"
         offset="0.1880734"
         id="stop19" /><stop
         style="stop-color:#061dc7;stop-opacity:1;"
         offset="0.61009175"
         id="stop20" /></linearGradient><linearGradient
       id="linearGradient17"
       inkscape:collect="always"><stop
         style="stop-color:#2df9ff;stop-opacity:1;"
         offset="0"
         id="stop17" /><stop
         style="stop-color:#1056d5;stop-opacity:1;"
         offset="0.13761468"
         id="stop26" /><stop
         style="stop-color:#061dc7;stop-opacity:1;"
         offset="0.18348624"
         id="stop18" /></linearGradient><linearGradient
       id="linearGradient8"
       inkscape:collect="always"><stop
         style="stop-color:#00ff00;stop-opacity:1;"
         offset="0.49748826"
         id="stop8" /><stop
         style="stop-color:#75ff41;stop-opacity:0.62671232;"
         offset="1"
         id="stop9" /></linearGradient><radialGradient
       inkscape:collect="always"
       xlink:href="#linearGradient8"
       id="radialGradient9"
       cx="5.5776896"
       cy="3.9691403"
       fx="5.5776896"
       fy="3.9691403"
       r="3.0517516"
       gradientTransform="matrix(1.3643613,-1.1445048,0.9813519,1.1698671,-7.0471779,7.2208962)"
       gradientUnits="userSpaceOnUse" /><linearGradient
       inkscape:collect="always"
       xlink:href="#linearGradient17"
       id="linearGradient18"
       x1="-4.9789777"
       y1="-1.5717733"
       x2="-5.7809772"
       y2="1.6448706"
       gradientUnits="userSpaceOnUse"
       gradientTransform="translate(0.78680012,2.2323175)" /><linearGradient
       inkscape:collect="always"
       xlink:href="#linearGradient20"
       id="linearGradient26"
       gradientUnits="userSpaceOnUse"
       x1="-1.3246186"
       y1="-0.70492697"
       x2="-3.1839697"
       y2="1.3600918"
       gradientTransform="translate(0.78680012,2.2323175)" /><radialGradient
       inkscape:collect="always"
       xlink:href="#linearGradient22"
       id="radialGradient27"
       cx="2.3841267"
       cy="8.9451323"
       fx="2.3841267"
       fy="8.9451323"
       r="4.7008324"
       gradientTransform="matrix(1.6872967,-0.254123,0.30793779,2.0446099,-3.6581401,-7.7115714)"
       gradientUnits="userSpaceOnUse"
       spreadMethod="pad" /></defs><g
     inkscape:label="Layer 1"
     inkscape:groupmode="layer"
     id="layer1"><path
       id="rect17"
       style="fill:#041179;fill-opacity:0.91576087;stroke-width:0.105791;stroke-miterlimit:1.7"
       d="m 5.5265789,0.514765 c -2.007221,0 -3.6231582,1.5131634 -3.6231582,3.6604946 v 0.6606517 c 0,0.6660365 0.1877003,1.3320731 0.5574912,1.9226936 1.0566331,1.6695297 2.1409243,3.3558331 3.2116296,5.0273191 0.2998852,0.468053 0.5422911,0.705778 0.9306188,0.700958 0.396083,-0.0049 0.5788991,-0.270242 0.9311675,-0.738295 1.0749823,-1.676484 3.2132672,-4.9899821 3.2132672,-4.9899821 0.370241,-0.5906205 0.55749,-1.2566571 0.55749,-1.9600301 V 4.1379231 c 0,-2.1099947 -1.6159371,-3.6231581 -3.6231578,-3.6231581 z"
       sodipodi:nodetypes="sssccaccssss" /><path
       id="path28"
       style="fill:url(#radialGradient27);fill-opacity:1;stroke-width:0.106;stroke-miterlimit:1.7;stroke-dasharray:none;stroke:none"
       d="m 5.2723257,0.36390556 c -2.007221,0 -3.6231582,1.51316344 -3.6231582,3.66049464 v 0.6606517 c 0,0.6660365 0.1877003,1.3320731 0.5574912,1.9226936 1.0566331,1.6695297 2.1409243,3.3558333 3.2116296,5.0273185 0.2998852,0.468053 0.5422911,0.705778 0.9306188,0.700958 0.396083,-0.0049 0.5788991,-0.270242 0.9311675,-0.738295 C 8.3550569,9.9212435 10.493342,6.6077455 10.493342,6.6077455 10.863583,6.017125 11.050832,5.3510884 11.050832,4.6477154 V 3.9870637 c 0,-2.1099947 -1.6159369,-3.62315814 -3.623158,-3.62315814 z"
       sodipodi:nodetypes="sssccaccssss" /><path
       id="path52"
       style="display:none;fill:#06145a;fill-opacity:1;stroke:#091e86;stroke-width:0.46522;stroke-dasharray:none;stroke-opacity:1"
       d="m 4.3507792,0.66893038 c -1.1663375,0 -2.1971985,1.07657682 -2.1971985,2.24291452 v 2.5068418 c 0,0.6143931 0.1275872,0.8866549 0.3482904,1.2192519 0.3989986,0.601286 1.4048907,1.5897084 1.9295003,2.498359 0.5246094,0.9086504 0.8848026,1.5876254 1.5590588,2.8603134 0.077996,0.14722 0.2566913,0.246876 0.4345381,0.246963 h 4.713e-4 4.712e-4 c 0.1778469,-8.7e-5 0.3565423,-0.09975 0.4345382,-0.246963 l 3.488559,-5.3586724 c 0.217777,-0.3345208 0.34829,-0.6048588 0.34829,-1.2192519 V 2.9118449 c 0,-1.1663377 -1.0308609,-2.24291452 -2.197198,-2.24291452 H 6.4254396 Z"
       sodipodi:nodetypes="ssssssscscsssscs" /><g
       id="g30"
       inkscape:label="speakers"
       transform="matrix(1.0618263,0,0,1.0618263,-0.38186881,0.17747974)"
       style="display:inline"><path
         id="rect1"
         style="mix-blend-mode:normal;fill:url(#radialGradient9);stroke:none;stroke-width:0.1;stroke-miterlimit:1.7;stroke-dasharray:none"
         d="m 4.0255941,1.5115356 c -0.408407,0 -0.7374227,0.2251346 -0.7374227,0.5048788 v 2.1983154 c 0,0.035984 0.00566,0.071092 0.01602,0.1049032 -0.010294,0.03762 -0.01602,0.077365 -0.01602,0.118339 v 1.462443 c 0,0.2460344 0.1983824,0.4439006 0.4444173,0.4439006 h 2.352828 c 0.246035,0 0.4439005,-0.1978662 0.4439005,-0.4439006 V 4.437972 c 0,-0.040978 -0.00572,-0.080714 -0.01602,-0.118339 0.010349,-0.033817 0.01602,-0.068925 0.01602,-0.1049032 V 2.0164144 c 0,-0.2797442 -0.3290158,-0.5048788 -0.7374227,-0.5048788 z m 3.2308105,0.7436239 c -0.3206371,0 -0.578776,0.1829153 -0.578776,0.4108276 v 1.7332276 0.3860229 1.0257772 c 0,0.2060033 0.1660672,0.3720703 0.3720703,0.3720703 h 1.9699056 c 0.2060031,0 0.3720703,-0.166067 0.3720703,-0.3720703 V 4.7852376 4.3992147 2.6659871 c 0,-0.2279123 -0.2586556,-0.4108276 -0.5792928,-0.4108276 z" /><path
         id="path2"
         style="fill:#061dc7;fill-opacity:1;stroke-width:0.105019;stroke-miterlimit:1.7"
         d="M 4.9087443,2.0484538 A 0.60145729,0.60145729 0 0 0 4.3072306,2.6499674 0.60145729,0.60145729 0 0 0 4.9087443,3.2514811 0.60145729,0.60145729 0 0 0 5.510258,2.6499674 0.60145729,0.60145729 0 0 0 4.9087443,2.0484538 Z m 0,0.1173055 A 0.48428422,0.48428422 0 0 1 5.3929525,2.6499674 0.48428422,0.48428422 0 0 1 4.9087443,3.1341756 0.48428422,0.48428422 0 0 1 4.4245361,2.6499674 0.48428422,0.48428422 0 0 1 4.9087443,2.1657593 Z M 8.0341349,2.7626221 A 0.47677377,0.47677377 0 0 0 7.5576782,3.2395955 0.47677377,0.47677377 0 0 0 8.0341349,3.7160522 0.47677377,0.47677377 0 0 0 8.5116252,3.2395955 0.47677377,0.47677377 0 0 0 8.0341349,2.7626221 Z m 0,0.093017 A 0.38389096,0.38389096 0 0 1 8.4186076,3.2395955 0.38389096,0.38389096 0 0 1 8.0341349,3.6235514 0.38389096,0.38389096 0 0 1 7.6506958,3.2395955 0.38389096,0.38389096 0 0 1 8.0341349,2.8556391 Z M 4.9087443,3.725354 A 1.1146717,1.1146717 0 0 0 3.7940837,4.8400146 1.1146717,1.1146717 0 0 0 4.9087443,5.9551921 1.1146717,1.1146717 0 0 0 6.0234049,4.8400146 1.1146717,1.1146717 0 0 0 4.9087443,3.725354 Z m 0,0.125057 A 0.99000522,0.99000522 0 0 1 5.8988647,4.8400146 0.99000522,0.99000522 0 0 1 4.9087443,5.8301351 0.99000522,0.99000522 0 0 1 3.9186239,4.8400146 0.99000522,0.99000522 0 0 1 4.9087443,3.850411 Z M 8.0341349,3.9739176 A 0.92994063,0.92994063 0 0 0 7.1044759,4.9030599 0.92994063,0.92994063 0 0 0 8.0341349,5.8332357 0.92994063,0.92994063 0 0 0 8.9643107,4.9030599 0.92994063,0.92994063 0 0 0 8.0341349,3.9739176 Z m 0,0.1033529 A 0.82593475,0.82593475 0 0 1 8.8604411,4.9030599 0.82593475,0.82593475 0 0 1 8.0341349,5.729366 0.82593475,0.82593475 0 0 1 7.2083455,4.9030599 0.82593475,0.82593475 0 0 1 8.0341349,4.0772705 Z M 4.9087443,4.5201375 A 0.31992345,0.31992345 0 0 0 4.5888672,4.8400146 0.31992345,0.31992345 0 0 0 4.9087443,5.1598918 0.31992345,0.31992345 0 0 0 5.2291382,4.8400146 0.31992345,0.31992345 0 0 0 4.9087443,4.5201375 Z m 3.1253906,0.116272 A 0.2669035,0.2669035 0 0 0 7.7674845,4.9030599 0.2669035,0.2669035 0 0 0 8.0341349,5.1702271 0.2669035,0.2669035 0 0 0 8.3013021,4.9030599 0.2669035,0.2669035 0 0 0 8.0341349,4.6364095 Z" /></g><g
       id="g31"
       inkscape:label="sh radius"
       transform="matrix(1.0618263,0,0,1.0618263,9.7076334,1.9390596)"
       style="display:inline;fill:none"><path
         id="path11"
         style="fill:none;fill-opacity:1;stroke:url(#linearGradient26);stroke-width:0.1;stroke-miterlimit:1.7;stroke-dasharray:none;stroke-opacity:1"
         d="m -2.2454288,0.59591801 c -0.3206371,0 -0.5789696,0.1832986 -0.5789696,0.41121089 v 1.732925 0.3859802 1.0260328 c 0,0.2060033 0.1658123,0.3718153 0.3718154,0.3718153 h 1.97017882 c 0.2060031,0 0.3718154,-0.165812 0.3718154,-0.3718153 V 3.1260341 2.7400539 1.0071289 c 0,-0.22791229 -0.2583324,-0.41121089 -0.5789696,-0.41121089 z" /><path
         id="path12"
         style="fill:none;fill-opacity:1;stroke:url(#linearGradient18);stroke-width:0.1;stroke-miterlimit:1.7;stroke-dasharray:none;stroke-opacity:1"
         d="m -5.4762388,-0.14771249 c -0.408407,0 -0.7374338,0.225306 -0.7374338,0.5050498 V 4.2414802 c 0,0.2460344 0.1979303,0.4439647 0.4439652,0.4439647 h 2.3530602 c 0.246035,0 0.4439652,-0.1979303 0.4439652,-0.4439647 V 0.35733731 c 0,-0.2797438 -0.3290268,-0.5050498 -0.7374337,-0.5050498 z"
         sodipodi:nodetypes="sssssssss" /></g><rect
       style="fill:#041179;fill-opacity:0.915761;stroke:none;stroke-width:0.106;stroke-miterlimit:1.7;stroke-dasharray:none"
       id="rect32"
       width="3.9394734"
       height="6.2009974"
       x="6.6555219"
       y="1.3389993" /></g></svg>
