<?xml version="1.0" encoding="UTF-8" standalone="no"?>
<!-- Created with Inkscape (http://www.inkscape.org/) -->

<svg
   width="120"
   height="120"
   viewBox="0 0 120 120"
   version="1.1"
   id="svg1"
   xml:space="preserve"
   inkscape:version="1.4.2 (ebf0e940, 2025-05-08)"
   sodipodi:docname="sound-logo_3.svg"
   inkscape:export-filename="Desktop/sound-logo_2.svg"
   inkscape:export-xdpi="2000"
   inkscape:export-ydpi="2000"
   xmlns:inkscape="http://www.inkscape.org/namespaces/inkscape"
   xmlns:sodipodi="http://sodipodi.sourceforge.net/DTD/sodipodi-0.dtd"
   xmlns:xlink="http://www.w3.org/1999/xlink"
   xmlns="http://www.w3.org/2000/svg"
   xmlns:svg="http://www.w3.org/2000/svg"><sodipodi:namedview
     id="namedview1"
     pagecolor="#ffffff"
     bordercolor="#999999"
     borderopacity="1"
     inkscape:showpageshadow="2"
     inkscape:pageopacity="0"
     inkscape:pagecheckerboard="0"
     inkscape:deskcolor="#d1d1d1"
     inkscape:document-units="mm"
     inkscape:zoom="15.547002"
     inkscape:cx="24.763617"
     inkscape:cy="20.19682"
     inkscape:window-width="1792"
     inkscape:window-height="1061"
     inkscape:window-x="0"
     inkscape:window-y="31"
     inkscape:window-maximized="0"
     inkscape:current-layer="layer1"
     showgrid="false"><inkscape:page
       x="0"
       y="0"
       width="120"
       height="120"
       id="page2"
       margin="0"
       bleed="0" /></sodipodi:namedview><defs
     id="defs1"><linearGradient
       id="linearGradient70"
       inkscape:collect="always"><stop
         style="stop-color:#f67400;stop-opacity:1;"
         offset="0.09633028"
         id="stop70" /><stop
         style="stop-color:#6c0010;stop-opacity:1;"
         offset="0.69724768"
         id="stop71" /></linearGradient><radialGradient
       inkscape:collect="always"
       xlink:href="#linearGradient70"
       id="radialGradient71"
       cx="3.9148598"
       cy="7.3331351"
       fx="3.9148598"
       fy="7.3331351"
       r="4.1208506"
       gradientTransform="matrix(12.785158,-0.30099028,0.47710729,19.321292,-24.751621,-74.802561)"
       gradientUnits="userSpaceOnUse" /></defs><g
     inkscape:label="Layer 1"
     inkscape:groupmode="layer"
     id="layer1"
     transform="translate(5.1524069,19.157362)"><path
       id="rect17"
       style="fill:url(#radialGradient71);stroke:none;stroke-width:1.03023;stroke-miterlimit:1.7"
       d="m 44.60077,-18.567246 c -19.085206,0 -34.449975,15.0922888 -34.449975,36.509768 v 6.58934 c 0,6.643054 1.784702,13.286098 5.300777,19.176936 10.046756,16.651893 20.356493,33.471089 30.537051,50.142487 2.851388,4.668336 5.156249,7.039425 8.848576,6.991355 3.766066,-0.049 5.504331,-2.695383 8.853795,-7.363757 C 73.912221,76.757641 94.243613,43.708798 94.243613,43.708798 97.763971,37.81796 99.54439,31.174916 99.54439,24.159468 V 17.57013 c 0,-21.0450872 -15.364772,-36.137376 -34.449979,-36.137376 z"
       sodipodi:nodetypes="sssccaccssss" /><path
       id="path20"
       style="fill:#f8ff00;fill-opacity:1;stroke:none;stroke-width:0.971474;stroke-miterlimit:1.7;stroke-opacity:1"
       inkscape:label="speaker1"
       d="m 66.367124,-5.9307995 -23.039062,0.00195 c -5.32821,0 -9.621094,2.9674009 -9.621094,6.65039065 v 23.68749985 5.257813 2.933594 0.52539 18.730469 c 0,3.239191 2.587022,5.845703 5.796875,5.845703 h 30.6875 c 1.611171,0 3.066756,-0.656309 4.115234,-1.720703 1.040351,-1.056145 1.681641,-2.511706 1.681641,-4.125 V 32.600451 32.594591 29.664904 0.72154425 c 0,-3.68298975 -4.292882,-6.65234375 -9.621094,-6.65234375 z m -11.519531,5.38867188 a 8.8581762,8.8581762 0 0 1 8.857422,8.85742192 8.8581762,8.8581762 0 0 1 -8.857422,8.8593747 8.8581762,8.8581762 0 0 1 -8.857422,-8.8593747 8.8581762,8.8581762 0 0 1 8.857422,-8.85742192 z m 0,3.04882812 a 5.8086305,5.8086305 0 0 0 -5.808594,5.8085938 5.8086305,5.8086305 0 0 0 5.808594,5.8085937 5.8086305,5.8086305 0 0 0 5.808594,-5.8085937 5.8086305,5.8086305 0 0 0 -5.808594,-5.8085938 z m 0,19.7929685 A 15.116956,15.116956 0 0 1 69.964781,37.416857 15.116956,15.116956 0 0 1 54.847593,52.534044 15.116956,15.116956 0 0 1 39.730406,37.416857 15.116956,15.116956 0 0 1 54.847593,22.299669 Z m 0,3.324219 A 11.792899,11.792899 0 0 0 43.054624,37.416857 11.792899,11.792899 0 0 0 54.847593,49.209826 11.792899,11.792899 0 0 0 66.640562,37.416857 11.792899,11.792899 0 0 0 54.847593,25.623888 Z m 0,8.027344 a 3.8976703,3.7642066 0 0 1 3.898438,3.765625 3.8976703,3.7642066 0 0 1 -3.898438,3.763672 3.8976703,3.7642066 0 0 1 -3.898437,-3.763672 3.8976703,3.7642066 0 0 1 3.898437,-3.765625 z" /></g><g
     inkscape:groupmode="layer"
     id="layer2"
     inkscape:label="Layer 2"
     transform="translate(5.1524069,19.157362)"><circle
       style="fill:none;stroke:none;stroke-width:2.2496;stroke-miterlimit:1.7"
       id="path11"
       cx="54.847599"
       cy="32.60379"
       r="11.792899" /></g></svg>
