<?xml version="1.0" encoding="UTF-8" standalone="no"?>
<!-- Created with Inkscape (http://www.inkscape.org/) -->

<svg
   width="120"
   height="120"
   viewBox="0 0 120 120"
   version="1.1"
   id="svg1"
   xml:space="preserve"
   xmlns:xlink="http://www.w3.org/1999/xlink"
   xmlns="http://www.w3.org/2000/svg"
   xmlns:svg="http://www.w3.org/2000/svg"><defs
     id="defs1"><linearGradient
       id="linearGradient9"><stop
         style="stop-color:#f67400;stop-opacity:1;"
         offset="0.11697248"
         id="stop9" /><stop
         style="stop-color:#6c0010;stop-opacity:1;"
         offset="0.8851161"
         id="stop10" /></linearGradient><linearGradient
       id="linearGradient1"><stop
         style="stop-color:#f8ff00;stop-opacity:1;"
         offset="0.86238533"
         id="stop4" /><stop
         style="stop-color:#f67400;stop-opacity:1;"
         offset="1"
         id="stop8" /></linearGradient><linearGradient
       id="linearGradient70"><stop
         style="stop-color:#f67400;stop-opacity:0;"
         offset="0.09633028"
         id="stop70" /><stop
         style="stop-color:#6c0010;stop-opacity:0;"
         offset="0.70412844"
         id="stop14" /></linearGradient><radialGradient
       xlink:href="#linearGradient70"
       id="radialGradient71"
       cx="3.9148598"
       cy="7.3331351"
       fx="3.9148598"
       fy="7.3331351"
       r="4.1208506"
       gradientTransform="matrix(11.87638,-0.27959567,0.44319416,17.94792,-19.093651,-66.561418)"
       gradientUnits="userSpaceOnUse" /><linearGradient
       xlink:href="#linearGradient1"
       id="linearGradient8"
       x1="90.058311"
       y1="19.13596"
       x2="19.636883"
       y2="63.140152"
       gradientUnits="userSpaceOnUse" /><radialGradient
       xlink:href="#linearGradient9"
       id="radialGradient10"
       cx="28.768862"
       cy="65.016045"
       fx="28.768862"
       fy="65.016045"
       r="60"
       gradientUnits="userSpaceOnUse"
       gradientTransform="matrix(0.99495728,-0.37092831,0.52733748,1.4145003,-31.189028,-15.581373)" /></defs><g
     id="layer1"
     transform="translate(5.1524069,19.157362)"><rect
       style="fill:url(#radialGradient10);stroke-width:3.77953;stroke-miterlimit:1.7"
       id="rect8"
       width="120"
       height="120"
       x="-5.1524067"
       y="-19.157362"
       ry="16.57225" /><path
       id="rect17"
       style="fill:url(#radialGradient71);stroke:url(#linearGradient8);stroke-width:2.26772;stroke-miterlimit:1.7;stroke-dasharray:none"
       d="m 45.329122,-14.32335 c -17.728616,0 -32.001246,14.01951809 -32.001246,33.914627 v 6.120965 c 0,6.170861 1.657844,12.341713 4.923994,17.813826 9.332625,15.468264 18.909538,31.091939 28.366455,46.578322 2.648709,4.336508 4.789739,6.539058 8.219613,6.494405 3.498371,-0.04552 5.113079,-2.503793 8.224461,-6.840336 9.494694,-15.532684 28.380916,-46.232391 28.380916,-46.232391 3.270129,-5.472113 4.923994,-11.642965 4.923994,-18.15975 v -6.120963 c 0,-19.54918691 -14.272633,-33.568705 -32.001249,-33.568705 z" /><path
       id="path20"
       style="fill:#f8ff00;fill-opacity:1;stroke:none;stroke-width:0.902421;stroke-miterlimit:1.7;stroke-opacity:1"
       d="m 65.548307,-2.5851112 -21.401428,0.00181 c -4.949477,0 -8.93722,2.75647593 -8.93722,6.1776761 V 51.094449 c 0,3.008947 2.403135,5.430186 5.384829,5.430186 h 28.50621 c 1.496648,0 2.848769,-0.609658 3.82272,-1.598394 0.966402,-0.981074 1.562109,-2.333172 1.562109,-3.831792 V 3.5943792 c 0,-3.42120019 -3.987741,-6.1794904 -8.93722,-6.1794904 z M 54.847593,2.42053 c 4.543945,3.869e-4 8.227443,3.6838852 8.22783,8.22783 6.15e-4,4.544653 -3.683177,8.229257 -8.22783,8.229644 -4.544653,-3.87e-4 -8.228445,-3.684991 -8.22783,-8.229644 3.87e-4,-4.5439448 3.683885,-8.2274431 8.22783,-8.22783 z m 0,2.8321152 c -2.979963,1.88e-5 -5.395696,2.4157515 -5.395715,5.3957148 1.9e-5,2.979963 2.415752,5.395696 5.395715,5.395715 2.979963,-1.9e-5 5.395696,-2.415752 5.395715,-5.395715 -1.9e-5,-2.9799633 -2.415752,-5.395696 -5.395715,-5.3957148 z m 0,18.3860698 c 7.755589,-1.19e-4 14.042766,6.287059 14.042647,14.042647 1.19e-4,7.755589 -6.287058,14.042766 -14.042647,14.042647 -7.755589,1.19e-4 -14.042765,-6.287058 -14.042646,-14.042647 -1.19e-4,-7.755588 6.287057,-14.042766 14.042646,-14.042647 z m 0,3.087931 c -6.050138,-3.6e-5 -10.954752,4.904579 -10.954716,10.954716 -3.6e-5,6.050138 4.904578,10.954753 10.954716,10.954717 6.050138,3.6e-5 10.954752,-4.904579 10.954716,-10.954717 3.6e-5,-6.050137 -4.904578,-10.954752 -10.954716,-10.954716 z m 0,7.456755 c 2.000425,-3.81e-4 3.622088,1.566035 3.621334,3.497961 -2.84e-4,1.931219 -1.621643,3.496529 -3.621334,3.496148 -1.999691,3.8e-4 -3.621049,-1.56493 -3.621333,-3.496148 -7.55e-4,-1.931926 1.620908,-3.498341 3.621333,-3.497961 z" /><path
       id="path27"
       style="fill:none;fill-opacity:1;stroke:none;stroke-width:0.902421;stroke-miterlimit:1.7;stroke-opacity:1"
       d="m 65.548307,-2.5851112 -21.401428,0.00181 c -4.949477,0 -8.93722,2.75647593 -8.93722,6.1776761 V 51.094449 c 0,3.008947 2.403135,5.430186 5.384829,5.430186 h 28.50621 c 1.496648,0 2.848769,-0.609658 3.82272,-1.598394 0.966402,-0.981074 1.562109,-2.333172 1.562109,-3.831792 V 3.5943792 c 0,-3.42120019 -3.987741,-6.1794904 -8.93722,-6.1794904 z M 54.847593,2.42053 c 4.543945,3.869e-4 8.227443,3.6838852 8.22783,8.22783 6.15e-4,4.544653 -3.683177,8.229257 -8.22783,8.229644 -4.544653,-3.87e-4 -8.228445,-3.684991 -8.22783,-8.229644 3.87e-4,-4.5439448 3.683885,-8.2274431 8.22783,-8.22783 z m 0,2.8321152 c -2.979963,1.88e-5 -5.395696,2.4157515 -5.395715,5.3957148 1.9e-5,2.979963 2.415752,5.395696 5.395715,5.395715 2.979963,-1.9e-5 5.395696,-2.415752 5.395715,-5.395715 -1.9e-5,-2.9799633 -2.415752,-5.395696 -5.395715,-5.3957148 z m 0,18.3860698 c 7.755589,-1.19e-4 14.042766,6.287059 14.042647,14.042647 1.19e-4,7.755589 -6.287058,14.042766 -14.042647,14.042647 -7.755589,1.19e-4 -14.042765,-6.287058 -14.042646,-14.042647 -1.19e-4,-7.755588 6.287057,-14.042766 14.042646,-14.042647 z m 0,3.087931 c -6.050138,-3.6e-5 -10.954752,4.904579 -10.954716,10.954716 -3.6e-5,6.050138 4.904578,10.954753 10.954716,10.954717 6.050138,3.6e-5 10.954752,-4.904579 10.954716,-10.954717 3.6e-5,-6.050137 -4.904578,-10.954752 -10.954716,-10.954716 z m 0,7.456755 c 2.000425,-3.81e-4 3.622088,1.566035 3.621334,3.497961 -2.84e-4,1.931219 -1.621643,3.496529 -3.621334,3.496148 -1.999691,3.8e-4 -3.621049,-1.56493 -3.621333,-3.496148 -7.55e-4,-1.931926 1.620908,-3.498341 3.621333,-3.497961 z" /></g><g
     id="layer2"
     transform="translate(5.1524069,19.157362)"><circle
       style="fill:none;stroke:none;stroke-width:2.0897;stroke-miterlimit:1.7"
       id="path11"
       cx="54.847599"
       cy="33.210411"
       r="10.954651" /></g></svg>
