<?xml version="1.0" encoding="UTF-8" standalone="no"?>
<!-- Created with Inkscape (http://www.inkscape.org/) -->

<svg
   width="120"
   height="120"
   viewBox="0 0 120 120"
   version="1.1"
   id="svg1"
   xml:space="preserve"
   inkscape:version="1.4.2 (ebf0e940, 2025-05-08)"
   sodipodi:docname="map-icon.svg"
   inkscape:export-filename="map-icon.svg"
   inkscape:export-xdpi="2000"
   inkscape:export-ydpi="2000"
   xmlns:inkscape="http://www.inkscape.org/namespaces/inkscape"
   xmlns:sodipodi="http://sodipodi.sourceforge.net/DTD/sodipodi-0.dtd"
   xmlns:xlink="http://www.w3.org/1999/xlink"
   xmlns="http://www.w3.org/2000/svg"
   xmlns:svg="http://www.w3.org/2000/svg"><sodipodi:namedview
     id="namedview1"
     pagecolor="#ffffff"
     bordercolor="#999999"
     borderopacity="1"
     inkscape:showpageshadow="2"
     inkscape:pageopacity="0"
     inkscape:pagecheckerboard="0"
     inkscape:deskcolor="#d1d1d1"
     inkscape:document-units="mm"
     inkscape:zoom="4.2616629"
     inkscape:cx="47.868638"
     inkscape:cy="71.802958"
     inkscape:window-width="1792"
     inkscape:window-height="1061"
     inkscape:window-x="0"
     inkscape:window-y="31"
     inkscape:window-maximized="0"
     inkscape:current-layer="layer1"
     showgrid="false"><inkscape:page
       x="0"
       y="0"
       width="120"
       height="120"
       id="page2"
       margin="0"
       bleed="0" /></sodipodi:namedview><defs
     id="defs1"><linearGradient
       id="linearGradient70"
       inkscape:collect="always"><stop
         style="stop-color:#f67400;stop-opacity:1;"
         offset="0.09633028"
         id="stop70" /><stop
         style="stop-color:#6c0010;stop-opacity:1;"
         offset="0.69724768"
         id="stop71" /></linearGradient><radialGradient
       inkscape:collect="always"
       xlink:href="#linearGradient70"
       id="radialGradient71"
       cx="3.9148598"
       cy="7.3331351"
       fx="3.9148598"
       fy="7.3331351"
       r="4.1208506"
       gradientTransform="matrix(12.096878,-0.28478668,0.45142256,18.281144,-20.46646,-66.579081)"
       gradientUnits="userSpaceOnUse" /></defs><g
     inkscape:label="Layer 1"
     inkscape:groupmode="layer"
     id="layer1"
     transform="translate(5.1524069,19.157362)"><path
       id="rect17"
       style="fill:url(#radialGradient71);stroke:none;stroke-width:0.974768;stroke-miterlimit:1.7"
       d="m 45.152394,-17.070209 c -18.057767,0 -32.595385,13.8835977 -32.595385,34.148082 v 10.329872 c 0,6.28543 1.688624,12.570851 5.015414,18.144559 0,0 22.381694,32.416394 33.551253,48.639262 1.242884,1.805187 2.196956,2.667761 3.723917,2.66776 1.526957,-10e-7 2.481019,-0.862574 3.723902,-2.66776 C 69.741051,77.968696 92.12275,45.552304 92.12275,45.552304 95.453593,39.978596 97.138164,33.693175 97.138164,27.055399 V 16.725528 c 0,-19.9121393 -14.537621,-33.795737 -32.595389,-33.795737 z"
       sodipodi:nodetypes="ssscsascssss" /><path
       id="path2"
       style="fill:#f8ff00;fill-opacity:1;stroke:none;stroke-width:2.21478;stroke-miterlimit:1.7;stroke-opacity:1"
       inkscape:label="speaker1"
       d="M 54.847593,-2.9987497 A 26.885679,26.885679 0 0 0 27.961753,23.88709 26.885679,26.885679 0 0 0 54.847593,50.77293 26.885679,26.885679 0 0 0 81.733433,23.88709 26.885679,26.885679 0 0 0 54.847593,-2.9987497 Z m 0,18.3008937 a 8.8859845,8.5817113 0 0 1 8.887734,8.584946 8.8859845,8.5817113 0 0 1 -8.887734,8.580493 8.8859845,8.5817113 0 0 1 -8.887733,-8.580493 8.8859845,8.5817113 0 0 1 8.887733,-8.584946 z" /></g><g
     inkscape:groupmode="layer"
     id="layer2"
     inkscape:label="Layer 2"
     transform="translate(5.1524069,19.157362)"><circle
       style="fill:none;stroke:none;stroke-width:2.12849;stroke-miterlimit:1.7"
       id="path11"
       cx="54.847591"
       cy="35.045128"
       r="11.158037" /></g></svg>
